# xmcd
#
# Track frame offsets:
#	150
#	11907
#	24460
#	42042
#	54900
#	67310
#	78905
#	92137
#	101577
#	115182
#
# Disc length: 1703 seconds
#
# Revision: 0
# Processed by: cddbd v1.5.2PL0 Copyright (c) Steve Scherf et al.
# Submitted via: dBpowerAMP V4.0
#
DISCID=7a06a50a
DTITLE=Wynette, Tammy - Collectors Edition
DYEAR=1998
DGENRE=Country
TTITLE0=There Is No Use Hanging On
TTITLE1=Greener Than The Grass
TTITLE2=Easy Come, Easy Go
TTITLE3=What's Your Mama's Name, Child
TTITLE4=He Loves Me All The Way
TTITLE5=I Don't Wanna Play House
TTITLE6=You Can Be Replaced
TTITLE7=Your Good Girl Is Gonna Go Bad
TTITLE8=D-I-V-O-R-C-E
TTITLE9=Stand By Your Man
EXTD=
EXTT0=
EXTT1=
EXTT2=
EXTT3=
EXTT4=
EXTT5=
EXTT6=
EXTT7=
EXTT8=
EXTT9=
PLAYORDER=
